<svg xmlns="http://www.w3.org/2000/svg" width="77" height="18" viewBox="0 0 77 18">
  <path d="M10.4634,6.0779a0.3457,0.3506 0,1 0,0.6914 0a0.3457,0.3506 0,1 0,-0.6914 0z" fill="#48484A"/>
  <path d="M10.6938,6.0779a0.1152,0.1169 0,1 0,0.2305 0a0.1152,0.1169 0,1 0,-0.2305 0z" fill="#48484A"/>
  <path d="M10.8091,5.7273C10.6185,5.7273 10.4634,5.8846 10.4634,6.0779C10.4634,6.2713 10.6185,6.4286 10.8091,6.4286C10.9997,6.4286 11.1548,6.2713 11.1548,6.0779C11.1548,5.8846 10.9997,5.7273 10.8091,5.7273ZM10.8091,6.1948C10.7455,6.1948 10.6938,6.1425 10.6938,6.0779C10.6938,6.0134 10.7455,5.9611 10.8091,5.9611C10.8727,5.9611 10.9243,6.0134 10.9243,6.0779C10.9243,6.1425 10.8727,6.1948 10.8091,6.1948Z" fill="#48484A"/>
  <path d="M0,0L0,18L17.7462,18L17.7462,0L0,0ZM11.4007,3.6439C11.8107,3.3216 12.2207,2.9992 12.6311,2.6769L13.6696,1.8603L12.1414,4.763L11.0681,3.9053L11.4007,3.6439ZM15.2802,8.0864C15.2785,8.4813 15.2769,8.8759 15.2755,9.2707C14.9702,9.45 14.665,9.6293 14.3597,9.8086L13.966,10.0398L13.5565,9.6604C13.1873,9.3182 12.6733,9.3916 12.2601,9.4507C12.102,9.4731 11.9522,9.4951 11.8254,9.4932C11.3078,9.4881 9.9026,9.0393 9.3027,8.8476C9.1312,8.7927 9.0075,8.7531 8.9395,8.734L8.3165,8.5591L8.6899,9.0942C8.9856,9.5185 9.2361,9.8591 9.4776,10.1658C9.9828,10.8818 10.4119,11.5644 10.7894,12.2529C11.7786,14.0543 12.2668,15.5651 12.3152,16.9831L3.7739,16.9831C3.7735,15.753 3.7691,14.4713 3.761,13.0731C3.7592,12.7314 3.7615,12.3842 3.7638,12.0488C3.767,11.5901 3.7703,11.1161 3.7627,10.6481C3.7502,9.8799 3.7539,8.9764 3.8779,8.1012C4.0111,7.157 4.3086,6.2733 4.7385,5.5456C5.2333,4.7078 5.8745,4.1169 6.6442,3.7894C6.8689,3.694 7.0992,3.6243 7.3285,3.5822C7.4248,3.5647 7.5168,3.5518 7.6057,3.5392C7.9625,3.489 8.2994,3.4415 8.6617,3.1276C9.0294,2.8092 9.3847,2.4704 9.7226,2.1165L9.8473,3.129C9.8634,3.2599 9.8837,3.4228 9.974,3.5708C10.0469,3.69 10.1487,3.7718 10.2306,3.8377L10.4057,3.9785C11.9893,5.2506 13.5726,6.523 15.1559,7.7952C15.1963,7.8274 15.2417,7.8639 15.2576,7.8922C15.2804,7.9326 15.2804,8.0177 15.2802,8.0864Z" fill="#48484A"/>
  <path d="M35.1236,12.3195L35.1236,17.1117L25.6743,17.1117L25.6743,2.6416L30.3989,2.6416L30.3989,12.3195L35.1236,12.3195Z" fill="#48484A"/>
  <path d="M49.4358,7.4338L49.4358,2.6416L58.8851,2.6416L58.8851,17.1117L54.1604,17.1117L54.1604,7.4338L49.4358,7.4338Z" fill="#48484A"/>
  <path d="M36.0457,2.6416h4.7246v14.4701h-4.7246z" fill="#48484A"/>
  <path d="M43.7893,2.6416h4.7246v14.4701h-4.7246z" fill="#48484A"/>
  <path d="M66.698,2.6416h4.7246v14.4701h-4.7246z" fill="#48484A"/>
  <path d="M61.9734,2.6416h4.7246v4.7922h-4.7246z" fill="#48484A"/>
  <path d="M61.9734,12.3195h4.7246v4.7922h-4.7246z" fill="#48484A"/>
  <path d="M72.2754,12.3195h4.7246v4.7922h-4.7246z" fill="#48484A"/>
  <path d="M71.4226,2.6416h4.7246v4.7922h-4.7246z" fill="#48484A"/>
</svg>
