<svg xmlns="http://www.w3.org/2000/svg" width="110" height="121" viewBox="0 34 110 121">
  <defs>
    <clipPath id="clip">
      <rect x="0" y="34" width="110" height="121"/>
    </clipPath>
    <linearGradient id="grad1" x1="107.85" y1="17.77" x2="13.98" y2="162.87" gradientUnits="userSpaceOnUse">
      <stop offset="0" stop-color="#95D3FF" stop-opacity="0"/>
      <stop offset="0.993" stop-color="#E1E2FF" stop-opacity="0.82"/>
    </linearGradient>
    <linearGradient id="grad2" x1="94.47" y1="28.99" x2="28.79" y2="168.36" gradientUnits="userSpaceOnUse">
      <stop offset="0" stop-color="#D4DBFF" stop-opacity="1"/>
      <stop offset="1" stop-color="#95C4FF" stop-opacity="0.29"/>
    </linearGradient>
  </defs>
  <g clip-path="url(#clip)">
    <path fill-rule="evenodd" fill="url(#grad1)" d="M28.875,162.948C28.875,162.948 14.125,162.948 14.125,162.948C14.125,162.948 43.625,133.474 43.625,133.474C43.625,133.474 14.125,104 14.125,104C14.125,104 73.125,45.053 73.125,45.053C73.125,45.053 87.875,45.053 87.875,45.053C87.875,45.053 58.375,74.526 58.375,74.526C58.375,74.526 87.875,104 87.875,104C87.875,104 28.875,162.948 28.875,162.948C28.875,162.948 28.875,162.948 28.875,162.948ZM73.125,104C73.125,104 51,81.895 51,81.895C51,81.895 28.875,104 28.875,104C28.875,104 51,126.105 51,126.105C51,126.105 73.125,104 73.125,104C73.125,104 73.125,104 73.125,104Z"/>
    <path fill-rule="evenodd" fill="url(#grad2)" d="M-8,104C-8,104 62.062,34 62.062,34C62.062,34 76.812,34 76.812,34C76.812,34 87.875,45.053 87.875,45.053C87.875,45.053 73.125,45.053 73.125,45.053C73.125,45.053 62.062,56.105 62.062,56.105C62.062,56.105 110,104 110,104C110,104 39.938,174 39.938,174C39.938,174 25.188,174 25.188,174C25.188,174 14.125,162.947 14.125,162.947C14.125,162.947 28.875,162.947 28.875,162.947C28.875,162.947 39.938,151.895 39.938,151.895C39.938,151.895 -8,104 -8,104C-8,104 -8,104 -8,104ZM87.875,104C87.875,104 51,67.158 51,67.158C51,67.158 14.125,104 14.125,104C14.125,104 51,140.842 51,140.842C51,140.842 87.875,104 87.875,104C87.875,104 87.875,104 87.875,104Z"/>
  </g>
</svg>
